<?xml version="1.0" encoding="UTF-8"?>
<svg width="400" height="400" viewBox="0 0 400 400" xmlns="http://www.w3.org/2000/svg">
  <g transform="translate(200,200)" fill="none" stroke="#0A0B12">
    <!-- Outer circle -->
    <circle cx="0" cy="0" r="180" stroke-width="1" opacity="0.2"/>
    
    <!-- Six-pointed star -->
    <g opacity="0.3">
      <polygon points="0,-140 121.2,70 -121.2,70" stroke-width="2"/>
      <polygon points="0,140 121.2,-70 -121.2,-70" stroke-width="2"/>
    </g>
    
    <!-- Central hexagon -->
    <polygon points="0,-100 86.6,-50 86.6,50 0,100 -86.6,50 -86.6,-50" stroke-width="4"/>
    
    <!-- Inner hexagon -->
    <polygon points="0,-60 52,-30 52,30 0,60 -52,30 -52,-30" stroke-width="3"/>
    
    <!-- Ankh center -->
    <circle cx="0" cy="-20" r="16" stroke-width="3"/>
    <line x1="0" y1="-4" x2="0" y2="40" stroke-width="3"/>
    <line x1="-20" y1="20" x2="20" y2="20" stroke-width="3"/>
    
    <!-- Six nodes -->
    <g fill="#0A0B12">
      <circle cx="0" cy="-100" r="8"/>
      <circle cx="86.6" cy="-50" r="8"/>
      <circle cx="86.6" cy="50" r="8"/>
      <circle cx="0" cy="100" r="8"/>
      <circle cx="-86.6" cy="50" r="8"/>
      <circle cx="-86.6" cy="-50" r="8"/>
    </g>
  </g>
</svg>