<?xml version="1.0" encoding="UTF-8"?>
<svg width="400" height="400" viewBox="0 0 400 400" xmlns="http://www.w3.org/2000/svg">
  <defs>
    <linearGradient id="featherGrad" x1="0%" y1="0%" x2="100%" y2="100%">
      <stop offset="0%" style="stop-color:#D4AF37;stop-opacity:1" />
      <stop offset="100%" style="stop-color:#4C70A0;stop-opacity:1" />
    </linearGradient>
    <pattern id="papyrus" x="0" y="0" width="4" height="4" patternUnits="userSpaceOnUse">
      <path d="M0,2 L4,2" stroke="#4C70A0" stroke-width="0.1" opacity="0.2"/>
      <path d="M2,0 L2,4" stroke="#4C70A0" stroke-width="0.1" opacity="0.2"/>
    </pattern>
  </defs>
  
  <g transform="translate(200,200)">
    <!-- Outer sacred geometry -->
    <circle cx="0" cy="0" r="180" fill="none" stroke="#4C70A0" stroke-width="1" opacity="0.2"/>
    
    <!-- Six-pointed star -->
    <g opacity="0.3">
      <polygon points="0,-140 121.2,70 -121.2,70" fill="none" stroke="#4C70A0" stroke-width="2"/>
      <polygon points="0,140 121.2,-70 -121.2,-70" fill="none" stroke="#4C70A0" stroke-width="2"/>
    </g>
    
    <!-- Central hexagon -->
    <polygon points="0,-100 86.6,-50 86.6,50 0,100 -86.6,50 -86.6,-50" 
             fill="url(#papyrus)" stroke="url(#featherGrad)" stroke-width="4"/>
    
    <!-- Inner hexagon -->
    <polygon points="0,-60 52,-30 52,30 0,60 -52,30 -52,-30" 
             fill="none" stroke="#4C70A0" stroke-width="3"/>
    
    <!-- Ankh center -->
    <g stroke="#D4AF37" stroke-width="3" fill="none">
      <circle cx="0" cy="-20" r="16"/>
      <line x1="0" y1="-4" x2="0" y2="40"/>
      <line x1="-20" y1="20" x2="20" y2="20"/>
    </g>
    
    <!-- Six nodes -->
    <g fill="#4C70A0">
      <circle cx="0" cy="-100" r="8"/>
      <circle cx="86.6" cy="-50" r="8"/>
      <circle cx="86.6" cy="50" r="8"/>
      <circle cx="0" cy="100" r="8"/>
      <circle cx="-86.6" cy="50" r="8"/>
      <circle cx="-86.6" cy="-50" r="8"/>
    </g>
  </g>
</svg>